<svg xmlns="http://www.w3.org/2000/svg" width="766.146" height="604.798"><path d="M659.916 604.798H106.23C47.656 604.798 0 597.143 0 538.568s47.656-86.77 106.23-86.77h553.686c58.574 0 106.23 28.195 106.23 86.77s-47.656 66.23-106.23 66.23z" fill="#ccc"/><ellipse cx="183.489" cy="522.473" rx="143.787" ry="54.725" fill="#e6e6e6"/><path d="M184.562 473.113c74.653 0 136.005 21.656 143.09 49.36a21.62 21.62 0 00.696-5.366c0-30.223-64.375-54.724-143.786-54.724S40.775 486.884 40.775 517.107c0 1.811.245 3.6.696 5.366 7.086-27.704 68.437-49.36 143.09-49.36z" fill="#b3b3b3"/><ellipse cx="599.826" cy="522.473" rx="143.787" ry="54.725" fill="#e6e6e6"/><path d="M598.753 473.113c74.653 0 136.005 21.656 143.09 49.36a21.62 21.62 0 00.696-5.366c0-30.223-64.375-54.724-143.786-54.724s-143.787 24.501-143.787 54.724c0 1.811.246 3.6.696 5.366 7.086-27.704 68.437-49.36 143.09-49.36z" fill="#b3b3b3"/><path d="M341.225 422.622c0-12.841-92.833-26.157-162.175-26.157S53.495 424.313 53.495 437.154c0 5.394 13.308 11.487 33.878 16.74-28.461 9.13-28.227 14.598-28.227 21.904 0 5.72-3.47 18.921 19.255 24.378-21.204 8.35-18.255 18.448-18.255 24.622 0 12.841 59.444 29.191 128.786 29.191s120.214-24.349 120.214-37.19c0-5.741 4.219-18.561-22.494-23.26 25.035-9.13 24.494-13.618 24.494-19.74 0-5.457.521-16.837-24.081-21.407 31.74-9.975 54.16-22.686 54.16-29.77z" fill="#3f3d56"/><path d="M202.981 351.94c4.088-3.715 10.568-4.504 15.428-1.88 4.86 2.626-1.269 14.363-2.133 19.819-.313 1.974-3.749 24.965-3.863 26.96-.114 1.996 21.803-1.767 23.615-.923 2.618 1.219 11.101-4.697 12.57-7.183 5.067-8.575-12.552-38.087-20.338-44.3-7.786-6.212-19.727-6.21-27.844-.435m-42.674 7.942c-4.088-3.715-10.567-4.504-15.428-1.88-4.86 2.626 1.27 14.363 2.134 19.819.313 1.974 4.375 25.837 4.489 27.833.114 1.996-15.247 9.93-17.06 10.774-2.617 1.219-18.283-17.267-19.752-19.753-5.067-8.575 12.552-38.087 20.338-44.3 7.786-6.212 19.727-6.21 27.844-.435" fill="#e07f80"/><rect x="137.936" y="347.243" width="84.647" height="49.792" rx="4.811" ry="4.811" fill="#3f3d56"/><path d="M150.528 130.798l11.877 129.543s-9.877 17.06-2.694 24.242c0 0-13.468 9.876-5.387 17.957 0 0-11.672 7.183-4.49 14.366 5.029 5.028 1.873 20.022-.473 28.566-1.905 6.938-15.23 41.792-11.198 47.75 4.618 6.825 45.762 7.188 62.85 4.49 34.117-5.387 8.08-57.462 8.08-57.462s-9.877-32.323-16.162-32.323-.897-13.468-4.489-17.059c-3.591-3.591 0-14.252-3.591-17.9-3.592-3.648 1.796-13.426-3.592-15.27-5.387-1.846-11.427-119.268-11.427-119.268l-19.304-7.632z" fill="#e07f80"/><path d="M330.194 411.744c-.901-5.172-4.049-8.986-7.474-10.786-3.424-1.8-7.137-1.918-10.775-2.016-89.642-11.548-165.934-14.456-204.754 6.884 0 0-1.228-1.14 1.247 2.838 2.476 3.977 5.962 6.199 8.969 9.289 7.434 7.643 11.835 21.223 11.183 34.508-.276 5.608-1.382 11.183-.937 16.768.445 5.584 3.158 11.435 6.99 11.54 4.283.117 7.135-6.838 7.483-13.104.384-6.915-1.087-13.75-1.357-20.677-.27-6.926 1.136-14.867 5.351-18.01 4.607-3.436 10.08.377 14.574 4.122l16.232 13.53c1.996 1.665 4.022 3.362 5.619 5.782 3.356 5.087 4.341 12.65 4.222 19.73-.12 7.078-1.178 14.074-1.232 21.155-.054 7.08 1.08 14.636 4.576 19.519 3.494 4.882 9.801 5.725 12.921.323 4.376 4.655 10.899 4.333 15.052-.743 1.592-1.946 2.774-4.523 3.501-7.362.05.24.1.481.157.72 1.135 4.746 4.197 8.9 7.61 8.453 5.04-.659 7.148-9.738 7.583-17.136.484-8.229.381-16.546 1.315-24.691.935-8.146 3.045-16.332 7.192-21.916 4.148-5.584 10.649-7.907 15.588-3.946 3.47 2.783 5.629 8.003 8.06 12.579 2.431 4.576 5.744 8.986 9.698 8.87 4.04-.118 7.286-4.946 9.393-10.004 2.107-5.06 3.622-10.79 6.535-14.898 3.665-5.165 8.94-6.922 13.971-7.958 5.033-1.035 10.264-1.63 14.745-5.146 4.48-3.517 8.02-10.993 6.762-18.217z" fill="#e07f80"/><path d="M390.874 475.39h29.31l3.444 15.413s22.157 26.01-2.89 26.01-67.434 7.707-67.434-1.926c0-9.634 30.827-15.414 30.827-15.414l6.743-24.084zm184.216-73.56l-.552-29.305 15.346-3.733s25.59-22.643 26.06 2.4c.472 25.042 8.976 67.277-.656 67.458-9.632.181-15.991-30.531-15.991-30.531l-24.207-6.29z" fill="#2f2e41"/><path fill="#ffb6b6" d="M488.095 75.17l5.979 22.123-26.906 13.752-10.165-29.297 31.092-6.577zm-106.991-4.988a22.24 22.24 0 013.696 9.84l22.395 29.63-14.41 10.244-21.166-31.16a22.247 22.247 0 01-7.601-7.254c-4.905-7.418-5.053-15.958-.334-19.078 4.719-3.12 12.519.362 17.42 7.778z"/><path d="M449.639 215.285l46.11-.303s20.97 38.534-2.15 78.032l-3.853 80.92 96.335-4.816v34.958s-125.236 17.063-130.053 7.43c-4.816-9.634-14.45-69.774-14.45-69.774l-9.728 17.118-9.539 123.943h-29.784l-6.554-133.905 57.532-106.932 6.134-26.671z" fill="#2f2e41"/><path d="M460.612 93.264l31.586-2.657 4.655 3.241a164.677 164.677 0 016.107 75.562l-7.057 46.193-48.23 8.235-3.833-88.327 16.772-42.247z" fill="#e07f80"/><path d="M492.876 112.452l-33.633-19.677-30.607 20.647-34.146-29.554-21.918 16.013s30.886 41.965 46.72 44.259c15.835 2.294 73.584-31.688 73.584-31.688z" fill="#e07f80"/><path d="M488.205 131.269s.378 68.815-15.241 70.635c-15.619 1.82-26.483-2.548-26.483-2.548" opacity=".1"/><path d="M361.31 96.205c-13.543 0-27.94-5.87-39.107-17.241-9.607-9.781-15.442-22.149-16.429-34.826-1.002-12.872 3.092-24.525 11.529-32.811 17.27-16.962 47.567-14.218 67.538 6.116 19.971 20.334 22.17 50.677 4.9 67.638-7.612 7.476-17.756 11.124-28.431 11.124zM345.745 6.176c-9.146 0-17.779 3.087-24.238 9.431-7.15 7.023-10.614 16.99-9.75 28.065.877 11.272 6.107 22.312 14.726 31.088 17.653 17.973 44.145 20.683 59.054 6.04 14.91-14.643 12.677-41.179-4.976-59.153-10.006-10.187-22.85-15.47-34.816-15.47z" fill="#3f3d56"/><path d="M397.45 113.77L290.07 4.45c-5.75-5.86-15.19-5.94-21.05-.19l-12.29 12.08-104.28 102.42c-3.78 3.7-5.29 8.98-4.04 14.12 1.24 5.14 5.01 9.15 10.061 10.71l12.69 3.94 38.87 12.05c31.17 9.67 59.74 27.09 82.61 50.38l3.37 3.43c20.08 20.44 53.04 20.74 73.48.66l27.29-26.8c20.44-20.08 20.74-53.04.67-73.48z" fill="#3f3d56"/><path d="M239.07 102.03c-18.7 26.67-44.74 43.15-67.91 45.5l-12.689-3.94c-5.05-1.56-8.82-5.57-10.06-10.71-1.25-5.14.26-10.42 4.04-14.12L256.73 16.34c8.85 23.07 2.86 56.44-17.66 85.69z" fill="#e07f80"/><path d="M385.881 163.603a22.249 22.249 0 019.99 3.269l37.127 1.054-1.019 17.651-37.55-2.97a22.247 22.247 0 01-10.415 1.396c-8.855-.812-15.612-6.036-15.096-11.67s8.111-9.543 16.963-8.73z" fill="#ffb6b6"/><path d="M405.15 185.467l-.393-.152 5.005-20.604 32.778-.17 6.128-50.767c1.2-9.955 9.668-17.463 19.696-17.463a19.874 19.874 0 0114.777 6.597 19.847 19.847 0 014.947 15.387c-3.745 34.261-10.715 75.77-22.646 78.953-2.27.605-4.926.869-7.839.869-19.669 0-50.942-12.062-52.454-12.65z" fill="#e07f80"/><circle cx="468.32" cy="55.252" r="28.37" fill="#ffb6b6"/><path d="M486.983 79.74l-2.45-4.082s10.728-7.232 1.865-11.429c-8.864-4.197-10.265-14.46-10.265-14.46s-25.89-7.46-24.492-13.058c1.399-5.598-2.567-9.563 3.964-11.896 6.53-2.333 35.686-.004 38.952 6.76 3.266 6.763 6.534 25.422 4.902 27.988-1.633 2.565-12.476 20.177-12.476 20.177z" fill="#2f2e41"/><path d="M479.632 47.67l-26.359-17.49s-34.053-10.49-21.223 9.566l10.846 2.214s29.506 6.877 36.737 5.71z" fill="#e07f80"/><path d="M471.7 43.706l27.526 20.755s16.09-28.691-9.102-42.916c-25.192-14.224-41.166 8.053-41.166 8.053l6.648 7.113 16.095 6.995z" fill="#e07f80"/><circle cx="547.146" cy="498.798" r="34" fill="#ccc"/><circle cx="638.146" cy="495.798" r="34" fill="#ccc"/><circle cx="594.146" cy="532.798" r="34" fill="#ccc"/></svg>