<svg width="512" height="512" xmlns="http://www.w3.org/2000/svg" version="1.1" enable-background="new 0 0 176 176" xml:space="preserve">
 <g>
  <title>Layer 1</title>
  <g id="svg_6" stroke="null">
   <path fill="#000000" d="m327.59425,385.89072c-17.15291,-49.79034 -57.38828,-67.29138 -102.2843,-78.83698c-8.50396,-2.18687 -21.63711,-0.69828 -21.84796,-12.7436c-0.22028,-12.58271 13.70463,-9.77835 21.68518,-12.88046c8.62332,-3.3519 17.84829,-5.1217 26.71843,-7.87893c40.2905,-12.52409 66.34708,-39.23152 78.58369,-79.48135c3.54423,-11.65811 6.82159,-23.40257 9.95221,-35.17896c1.53471,-5.77306 2.7514,-12.22344 9.92643,-12.51938c8.29975,-0.34233 9.74835,6.89446 11.49785,13.07877c2.99927,10.60214 5.85309,21.24532 8.83056,31.85371c12.15924,43.32121 39.68084,71.3302 83.17974,83.41864c10.62422,2.95253 21.23051,5.97049 31.82933,9.01304c5.5699,1.59891 12.4317,2.7537 12.85654,9.76484c0.505,8.33538 -7.12895,9.60429 -13.15464,11.40619c-10.00778,2.9926 -20.11327,5.66128 -30.19371,8.40758c-45.63408,12.43247 -73.84533,41.93667 -85.83379,87.41897c-2.80935,10.65803 -5.78176,21.27421 -8.7905,31.87799c-1.52217,5.36464 -4.19326,9.94257 -10.70183,9.32764c-5.51191,-0.52076 -7.44341,-5.07534 -8.77712,-9.63838c-4.39394,-15.03293 -8.65234,-30.10547 -13.47611,-46.40931l0,-0.00002z" id="svg_1" stroke="null"/>
   <path fill="#000000" d="m53.21133,167.77221c-4.70133,-1.30797 -8.11391,-2.07789 -11.42194,-3.16572c-3.9311,-1.2927 -7.98058,-2.89077 -7.9584,-7.94649c0.02211,-5.03231 4.14009,-6.77433 7.99382,-8.03843c6.0727,-1.99203 12.26567,-3.66705 18.48439,-5.15631c34.35626,-8.22758 55.74264,-29.72524 65.29439,-63.45435c1.42548,-5.03364 3.05369,-10.00963 4.49716,-15.03841c1.70877,-5.95317 1.49003,-14.29106 10.10318,-13.94615c7.37955,0.29552 7.75831,8.34659 8.66502,13.5532c8.35532,47.97692 37.50878,74.39483 84.4118,83.12717c4.97341,0.92596 11.24473,2.00321 11.6506,8.57742c0.43455,7.03887 -6.33668,7.3492 -10.97989,9.07613c-4.34179,1.61484 -8.89208,2.75192 -13.42742,3.75047c-39.11722,8.61203 -60.69754,34.21556 -69.9027,71.89134c-1.10362,4.5169 -2.25118,9.02611 -3.52094,13.4984c-1.14641,4.03767 -2.80743,8.08635 -7.80952,7.97317c-4.91232,-0.11119 -6.58452,-4.23043 -7.8492,-8.18039c-1.06205,-3.31708 -1.94641,-6.71282 -2.61213,-10.13165c-8.10616,-41.62913 -32.91381,-66.8962 -75.61823,-76.38941l0.00001,0.00001z" id="svg_2" stroke="null"/>
   <path fill="#000000" d="m47.29334,400.52875c-3.00116,-0.83496 -5.17961,-1.32645 -7.29135,-2.02088c-2.50946,-0.82518 -5.09449,-1.84535 -5.08034,-5.07272c0.01411,-3.21242 2.6429,-4.32446 5.10297,-5.13141c3.87657,-1.27164 7.82992,-2.34092 11.79972,-3.29161c21.93169,-5.25217 35.58392,-18.97545 41.68143,-40.50679c0.90996,-3.2133 1.94934,-6.38977 2.87079,-9.59996c1.09083,-3.80028 0.95118,-9.12287 6.44947,-8.9027c4.71084,0.18866 4.95263,5.32814 5.53144,8.65185c5.3337,30.62661 23.94415,47.49081 53.88523,53.06519c3.17484,0.59111 7.17821,1.27877 7.43729,5.47548c0.27742,4.49335 -4.04508,4.69145 -7.00914,5.79388c-2.77162,1.03082 -5.67634,1.7567 -8.57155,2.39416c-24.97092,5.49759 -38.74695,21.84188 -44.62316,45.89264c-0.70453,2.88344 -1.43707,5.76192 -2.24765,8.61689c-0.73181,2.57748 -1.79215,5.16201 -4.98529,5.08977c-3.13585,-0.07098 -4.20332,-2.70057 -5.01062,-5.22205c-0.67798,-2.1175 -1.24254,-4.2852 -1.66748,-6.46767c-5.17469,-26.57444 -21.01093,-42.70397 -48.27177,-48.76406l0.00001,-0.00001z" id="svg_4" stroke="null"/>
  </g>
 </g>

</svg>