<svg version="1.0" xmlns="http://www.w3.org/2000/svg" width="578.667" height="578.667" viewBox="0 0 434 434"><path d="M162.6 62.2c-3.1 3.2-3.9 6-24.2 87-11.5 46.1-21.2 83.8-21.5 83.8-.4 0-7.7-9.4-16.3-21-8.7-11.5-17-21.8-18.4-22.9-4.6-3.2-10.3-4.3-16.3-3-4.9 1.1-6.3 2.1-16.9 12.5L37.3 210H0v224h434V210h-44l-19.5 13c-17 11.3-20.1 13-23.6 13-2.2 0-5-.5-6.2-1.1-1.2-.6-12.8-11.6-25.7-24.4-21.2-21-23.9-23.4-27.6-24-5.1-.8-11.7 1.7-14.4 5.5-1.2 1.7-8.4 28.8-20 75.1-10 39.8-18.6 74.2-19.2 76.4-1 3.7-3.3-7.1-29.3-136.5-19.3-96.6-28.7-141.4-30-143.3-3.6-5.6-7.4-6.1-11.9-1.5z"/></svg>